<svg xmlns="http://www.w3.org/2000/svg" xmlns:xlink="http://www.w3.org/1999/xlink" width="500" zoomAndPan="magnify" viewBox="0 0 375 374.999991" height="500" preserveAspectRatio="xMidYMid meet" version="1.0"><defs><clipPath id="3c37ccab77"><path d="M 11.199219 33 L 348 33 L 348 347 L 11.199219 347 Z M 11.199219 33 " clip-rule="nonzero"/></clipPath></defs><g clip-path="url(#3c37ccab77)"><path fill="#1893f8" d="M 326.226562 160.875 C 329.097656 168.53125 331.488281 174.273438 333.285156 177.980469 C 336.394531 172 334.121094 166.257812 326.226562 160.875 Z M 82.886719 219.011719 L 71.039062 219.011719 L 76.902344 208.722656 L 82.765625 198.554688 L 84.917969 210.996094 C 211.613281 185.039062 41.492188 338.03125 144.257812 331.453125 C 246.90625 324.871094 284.953125 185.757812 169.382812 246.28125 C 175.363281 201.304688 154.667969 162.070312 103.222656 172.597656 C 115.546875 141.734375 100.589844 128.816406 58.238281 133.839844 C 83.601562 91.734375 67.929688 63.386719 11.460938 48.671875 C 69.367188 21.757812 130.378906 30.730469 194.507812 75.828125 C 157.058594 152.023438 276.695312 139.582031 248.34375 206.089844 C 255.402344 196.878906 258.152344 184.917969 255.761719 173.554688 C 250.617188 149.273438 213.050781 136.472656 233.027344 135.996094 L 256.957031 134.917969 L 247.503906 133.125 L 246.308594 125.585938 L 268.5625 131.089844 L 263.777344 127.382812 L 264.492188 121.878906 L 292.128906 137.667969 L 286.984375 132.046875 L 288.898438 127.5 L 304.09375 143.53125 C 306.367188 144.25 308.398438 145.085938 310.3125 145.921875 C 288.539062 114.464844 287.464844 84.796875 288.898438 63.386719 C 291.410156 75.707031 294.402344 86.949219 297.753906 97.238281 C 300.265625 92.8125 305.410156 88.386719 312.945312 83.722656 C 293.085938 111.949219 312.828125 141.496094 336.753906 159.917969 C 344.292969 165.78125 345.007812 170.445312 339.148438 173.914062 C 341.300781 208.960938 363.433594 205.132812 326.945312 226.664062 C 334.003906 197.835938 292.128906 191.617188 299.667969 174.75 L 298.949219 174.511719 L 294.640625 179.296875 C 282.078125 171.640625 272.03125 169.847656 275.621094 185.757812 C 297.992188 286.355469 221.425781 360.757812 126.3125 344.847656 C 31.203125 329.058594 185.292969 208.363281 85.996094 212.070312 L 94.609375 219.128906 L 82.886719 219.128906 Z M 82.886719 219.011719 " fill-opacity="1" fill-rule="evenodd"/></g><path fill="#ba0018" d="M 195.464844 139.824219 C 175.84375 123.433594 168.902344 104.296875 174.765625 82.40625 C 149.640625 53.9375 104.417969 42.09375 39.21875 46.878906 C 105.257812 48.554688 145.097656 59.917969 158.613281 81.089844 C 126.074219 86.234375 99.394531 99.628906 78.816406 121.160156 C 102.503906 103.457031 130.5 92.574219 159.8125 89.34375 C 160.050781 98.074219 161.84375 105.492188 165.195312 111.59375 L 115.664062 161.953125 L 168.1875 118.171875 C 175.84375 133.003906 184.933594 143.53125 195.464844 149.632812 C 198.214844 176.902344 192.351562 204.175781 178.117188 231.449219 C 194.507812 212.070312 203.359375 186.953125 204.554688 155.851562 C 226.925781 169.25 238.054688 184.917969 238.054688 202.980469 C 247.746094 184.679688 233.507812 163.625 195.464844 139.824219 Z M 195.464844 139.824219 " fill-opacity="1" fill-rule="evenodd"/><path fill="#007acc" d="M 195.464844 139.824219 C 233.628906 163.625 247.746094 184.679688 238.054688 202.980469 C 238.171875 185.039062 227.046875 169.367188 204.554688 155.851562 C 203.359375 186.832031 194.507812 212.070312 178.117188 231.449219 C 192.351562 204.175781 198.214844 176.902344 195.464844 149.632812 C 184.933594 143.53125 175.84375 133.125 168.1875 118.171875 L 115.664062 161.953125 L 165.195312 111.59375 C 161.84375 105.492188 160.050781 98.074219 159.8125 89.34375 C 130.5 92.453125 102.503906 103.457031 78.816406 121.160156 C 99.394531 99.628906 125.953125 86.234375 158.613281 81.089844 C 145.097656 59.917969 105.257812 48.433594 39.21875 46.878906 C 104.417969 42.09375 149.640625 53.9375 174.765625 82.40625 C 168.902344 104.296875 175.722656 123.433594 195.464844 139.824219 Z M 323.355469 77.980469 C 319.167969 93.769531 316.296875 113.746094 321.441406 137.191406 C 325.269531 142.214844 329.816406 146.878906 334.601562 151.066406 C 327.0625 132.765625 327.0625 113.027344 343.933594 97.714844 C 335.558594 100.585938 329.695312 103.9375 326.226562 107.644531 C 325.269531 97.835938 324.789062 87.308594 324.789062 75.945312 Z M 323.355469 77.980469 " fill-opacity="1" fill-rule="evenodd"/></svg>